<svg width="20" height="24" viewBox="0 0 20 24" fill="none" xmlns="http://www.w3.org/2000/svg">
<path d="M13.8333 15.9672C13.7866 15.8072 13.7933 15.7739 13.9266 15.6805C16.26 14.0805 17.4666 11.0405 16.86 8.28714C16.4533 6.43378 15.5133 4.9671 14.0666 3.92709C11.7466 2.26041 9.22656 2.02041 6.57987 3.20708C6.26653 3.34709 5.96653 3.54042 5.71319 3.70709C5.57986 3.80709 5.51986 4.02043 5.53319 4.17376C5.55319 4.36043 5.79986 4.45376 5.9132 4.4671C6.03986 4.4871 6.1532 4.41376 6.2532 4.3471C7.49321 3.56709 8.83322 3.23375 10.2532 3.34709C12.1199 3.50709 13.6266 4.30043 14.7266 5.70711C16.3933 7.8338 16.66 10.1472 15.5133 12.5872C14.4733 14.7939 12.2466 16.1939 9.79323 16.1939C9.7199 16.1939 9.65323 16.1939 9.5799 16.1872C7.89322 16.1405 6.43987 15.5272 5.25986 14.3605C3.69317 12.8072 3.0665 10.8938 3.39984 8.68047C3.51984 7.86047 3.81984 7.08712 4.29985 6.30712C4.51318 5.96711 4.37318 5.78044 4.22651 5.68044C4.11984 5.61378 4.01984 5.58711 3.91318 5.61378C3.79317 5.64044 3.69317 5.72044 3.59984 5.86711C2.83316 7.09379 2.45316 8.4138 2.47983 9.79382C2.52649 12.2672 3.57984 14.2605 5.60653 15.7205C5.69986 15.7872 5.70653 15.7939 5.67319 15.9005C5.06652 17.9539 4.45318 20.0539 3.79984 22.3206C3.76651 22.4273 3.73984 22.7606 3.92651 22.8673C4.07984 22.9539 4.31985 22.9206 4.46651 22.8473C4.76652 22.6939 5.05319 22.5339 5.33319 22.3739L6.25987 21.8606L6.35987 22.0473C6.49987 22.3139 6.6332 22.5673 6.77987 22.8206C6.91321 23.054 7.04654 23.2873 7.17988 23.5206L7.45321 23.994L7.47321 24.0006H7.86655L7.91322 23.9073C7.92655 23.8806 7.94655 23.8473 7.95988 23.8206L7.97322 23.8006C8.02655 23.714 8.07988 23.6206 8.10655 23.514C8.55322 21.9873 8.99989 20.4539 9.4199 19.0206L9.7399 17.9339C9.7599 18.0006 9.7799 18.0606 9.79323 18.1272L10.2199 19.5806C10.6066 20.9006 10.9866 22.2206 11.3799 23.5406C11.4133 23.6473 11.4666 23.7273 11.5133 23.814L11.5266 23.834C11.5399 23.8606 11.5599 23.8873 11.5733 23.914L11.6266 24.0006H12.0133L12.1399 23.814C12.1933 23.7406 12.2533 23.654 12.2999 23.5673C12.4466 23.294 12.5933 23.0273 12.7399 22.7539L13.1866 21.9273C13.1999 21.9073 13.2133 21.8806 13.2266 21.8606L13.6799 22.1139C14.1399 22.3739 14.5733 22.6139 15.02 22.8539C15.16 22.9273 15.4 22.9673 15.56 22.8806C15.7466 22.7806 15.72 22.4406 15.6866 22.3273C14.9933 19.9206 14.4066 17.9006 13.8333 15.9672ZM14.6533 21.7006L14.3799 21.5473C14.0799 21.3806 13.7799 21.2139 13.4866 21.0473C13.2599 20.9206 13.1133 20.8473 12.9533 20.8873C12.7999 20.9339 12.7133 21.0739 12.5933 21.3006L11.9533 22.4873L10.3599 17.0272C10.4532 17.0072 10.5532 16.9939 10.6532 16.9739C11.0132 16.9072 11.3866 16.8472 11.7399 16.7406C12.0933 16.6406 12.4266 16.5072 12.7866 16.3672L12.8133 16.3539C12.8999 16.3205 12.9866 16.2872 13.0733 16.2539L14.6533 21.7006ZM9.15323 17.0139L7.55321 22.4939L6.89987 21.2939C6.78654 21.0873 6.69987 20.9473 6.54654 20.9006C6.5132 20.8939 6.48653 20.8873 6.4532 20.8873C6.32653 20.8873 6.19987 20.9539 6.0332 21.0473L4.83985 21.7073L6.4332 16.2405C7.28654 16.6672 8.17322 16.9206 9.15323 17.0139Z" fill="#060303"/>
<path d="M3.09352 13.8935C2.98685 13.8801 2.88685 13.9068 2.80685 13.9735C2.72018 14.0468 2.67351 14.1735 2.67351 14.3068L2.69351 15.2202C0.940164 12.9068 0.406825 10.3068 1.1135 7.50008C1.70684 5.14672 3.09352 3.31337 5.24687 2.04002C6.80022 1.12001 8.48024 0.720007 10.2203 0.846675C10.7136 0.880009 11.2136 0.98001 11.6936 1.07334C11.8869 1.11334 12.0936 1.15334 12.2869 1.18668C12.6803 1.26001 12.7869 1.00001 12.8136 0.886676C12.8736 0.646673 12.7469 0.460005 12.4869 0.386671L12.3403 0.34667C12.1803 0.30667 12.0069 0.253336 11.8269 0.226669C11.4736 0.166668 11.1203 0.113334 10.7603 0.0600006L10.3203 0H9.14025L9.04691 0.0200002L9.03358 0.0266669C9.01358 0.0333337 8.98691 0.0400004 8.96691 0.0466671C8.82691 0.0666673 8.68024 0.0866675 8.54024 0.106668L8.51357 0.113334C8.24024 0.146668 7.95357 0.186669 7.68023 0.246669C3.47352 1.12001 0.326824 4.72671 0.0268213 9.00009C-0.15318 11.5801 0.573493 13.9068 2.18684 15.9068H1.94017C1.73351 15.9068 1.5735 15.9068 1.42017 15.9002C1.3135 15.8935 1.20683 15.8935 1.0935 15.8935C0.833496 15.9002 0.660161 16.0602 0.660161 16.3068C0.660161 16.5402 0.820163 16.7002 1.0735 16.7068L1.46017 16.7202C2.07351 16.7402 2.58018 16.7602 3.10685 16.7602C3.26019 16.7602 3.39352 16.6335 3.42019 16.6068C3.49352 16.5335 3.53352 16.4602 3.53352 16.3868C3.53352 15.7068 3.52019 14.9935 3.48019 14.2535C3.47352 14.0735 3.24685 13.9135 3.09352 13.8935Z" fill="#060303"/>
<path d="M18.3403 5.17376C18.1003 4.74042 17.8203 4.32709 17.5469 3.92042L17.5336 3.90042C17.4736 3.80708 17.4069 3.71375 17.3469 3.62708H18.3469C18.7736 3.62708 18.8269 3.34708 18.8336 3.22708C18.8403 3.10707 18.8069 3.01374 18.7336 2.94041C18.6269 2.82707 18.4803 2.81374 18.3603 2.80707C18.0269 2.8004 17.6936 2.78707 17.3603 2.77374L16.4669 2.74707C16.4469 2.74707 16.4336 2.74707 16.4136 2.74707C16.2603 2.74707 16.1403 2.78707 16.0602 2.86707C15.9469 2.98041 15.9402 3.14041 15.9402 3.26708C15.9469 3.70041 15.9602 4.18042 15.9802 4.72042L15.9936 5.17376C15.9936 5.2271 15.9869 5.3271 16.0669 5.39376L16.1069 5.43376C16.1869 5.51376 16.2869 5.61377 16.4269 5.62043H16.4336C16.6136 5.62043 16.7803 5.40043 16.8003 5.26043C16.8203 5.10709 16.8136 4.96709 16.8069 4.82042C16.8069 4.76042 16.8003 4.70042 16.8003 4.63376C16.8003 4.52042 16.8003 4.40042 16.8003 4.28709C16.8136 4.30709 16.8269 4.32042 16.8403 4.34042L16.8536 4.36042C17.0603 4.64709 17.2736 4.94043 17.4469 5.2471C18.4803 7.03378 18.8603 8.9738 18.5736 11.0138C18.3269 12.7605 17.6069 14.3205 16.4269 15.6605C15.9669 16.1805 15.4269 16.6672 14.7669 17.1272C14.6269 17.2272 14.5469 17.3339 14.5269 17.4472C14.5136 17.5139 14.5202 17.6206 14.6002 17.7406C14.6936 17.8672 14.8002 17.9072 14.8736 17.9139C14.8869 17.9139 14.9069 17.9139 14.9202 17.9139C15.0336 17.9139 15.1469 17.8672 15.2602 17.7739C15.4069 17.6539 15.5536 17.5339 15.6869 17.4272C16.0336 17.1472 16.3936 16.8605 16.7136 16.5405C18.3469 14.8805 19.2669 12.8538 19.4536 10.5071C19.6136 8.5938 19.2403 6.79378 18.3403 5.17376Z" fill="#060303"/>
<path d="M5.30058 4.72072C5.27391 4.66739 5.22058 4.57405 5.12058 4.53405C5.02724 4.49405 4.83391 4.45405 4.70057 4.54739C4.56724 4.64072 4.44724 4.76739 4.34057 4.92072C4.26057 5.04739 4.28057 5.24073 4.3539 5.34739C4.42724 5.4674 4.58724 5.5274 4.71391 5.53406C4.82057 5.53406 4.92724 5.47406 5.05391 5.35406C5.18724 5.23406 5.34058 5.02072 5.34725 4.84072L5.33391 4.77405L5.30058 4.72072Z" fill="#060303"/>
<path d="M5.65511 13.8334C6.74845 14.9334 8.2018 15.5401 9.75515 15.5401C11.2885 15.5401 12.7418 14.9401 13.8352 13.8401C14.9352 12.74 15.5352 11.2867 15.5352 9.74669C15.5352 8.2 14.9285 6.74666 13.8352 5.65331C12.7418 4.55997 11.2818 3.95996 9.73515 3.95996H9.72182C6.56845 3.96663 3.98843 6.54665 3.97509 9.71335C3.95509 11.2734 4.5551 12.7334 5.65511 13.8334ZM4.7951 9.77335C4.78844 8.46001 5.29511 7.21333 6.23512 6.27332C7.17513 5.32664 8.4218 4.79997 9.74849 4.79997H9.76849C12.4818 4.79997 14.6952 7.01999 14.7085 9.74002C14.7219 12.4667 12.5018 14.7001 9.76182 14.7134H9.73515C7.02179 14.7134 4.80844 12.4934 4.7951 9.77335Z" fill="#060303"/>
<path d="M7.14648 9.22048L7.20649 9.28715C7.39315 9.48715 7.58649 9.68048 7.77316 9.88049C7.78649 9.89382 7.80649 9.90049 7.82649 9.90049C7.95316 9.90049 8.07983 9.90049 8.2065 9.90049H8.39316V11.8872C8.39316 11.9072 8.39316 11.9272 8.39983 11.9405C8.4265 12.0338 8.47316 12.1272 8.53983 12.2138C8.7265 12.4672 8.9665 12.6605 9.25317 12.7938C9.40651 12.8672 9.55317 12.9005 9.69318 12.9005C9.70651 12.9005 9.71984 12.9005 9.73318 12.9005C9.90651 12.9005 10.0732 12.8805 10.2398 12.8472C10.5332 12.7805 10.8132 12.6605 11.0665 12.4738C11.2265 12.3605 11.3799 12.2205 11.5399 12.0405C11.7732 11.7872 11.9399 11.5338 12.0599 11.2738C12.2399 10.8805 12.2932 10.4805 12.2332 10.0805C12.1799 9.74715 12.0265 9.45381 11.7799 9.21381C11.6465 9.08714 11.4999 9.00714 11.3265 8.96048C11.1799 8.92714 11.0265 8.92048 10.8532 8.95381C10.7132 8.97381 10.6132 9.01381 10.5265 9.08048C10.3865 9.18714 10.2932 9.33381 10.2465 9.51382C10.1932 9.73382 10.2132 9.96049 10.2998 10.1872C10.3665 10.3605 10.4932 10.4872 10.6665 10.5605C10.8132 10.6205 10.9732 10.6405 11.1465 10.6272C11.1665 10.6272 11.1799 10.6272 11.1999 10.6205V10.6338C11.1999 10.6538 11.1932 10.6738 11.1932 10.6938C11.1665 10.8672 11.1132 11.0338 11.0199 11.1872C10.8465 11.4805 10.5999 11.7338 10.3065 11.9338C10.0665 12.0938 9.83318 12.1538 9.58651 12.1138C9.49984 12.1005 9.41317 12.0805 9.33984 12.0272C9.19317 11.9205 9.11317 11.7805 9.11317 11.6005C9.11317 11.2138 9.11317 10.8338 9.11317 10.4538V9.88049H10.1132L10.0732 9.83382C10.0665 9.82715 10.0665 9.82048 10.0598 9.82048C9.86651 9.62048 9.67318 9.42048 9.47317 9.22048C9.45984 9.20714 9.43984 9.20048 9.42651 9.20048C9.35317 9.20048 9.28651 9.20048 9.21317 9.20048H9.11317V8.78714C9.11317 8.51381 9.11317 8.24047 9.11317 7.96713C9.11317 7.84713 9.1065 7.7338 9.0865 7.62713C9.0465 7.36713 8.95984 7.15379 8.8265 6.96712C8.65317 6.74045 8.41983 6.63379 8.12649 6.66712C7.98649 6.68045 7.84649 6.72712 7.68649 6.80712C7.62649 6.84045 7.54649 6.88712 7.49982 6.96712C7.45982 7.04046 7.44649 7.11379 7.47315 7.18046C7.50649 7.27379 7.55316 7.36713 7.59316 7.45379L7.63316 7.54046C7.64649 7.56713 7.65982 7.58713 7.67316 7.6138L7.69982 7.66046L7.72649 7.6538C7.73982 7.64713 7.75316 7.64046 7.75982 7.64046C7.77982 7.6338 7.79982 7.62046 7.81982 7.62046C7.91316 7.5938 8.01316 7.5938 8.09983 7.62713C8.16649 7.64713 8.2465 7.6738 8.3065 7.7338C8.37983 7.80046 8.41316 7.8938 8.41316 8.0138V9.21381H7.14648V9.22048Z" fill="#060303"/>
</svg>
