<svg width="24" height="24" viewBox="0 0 24 24" fill="none" xmlns="http://www.w3.org/2000/svg">
<path d="M0 7.79228C0.131707 7.5428 0.335254 7.43587 0.610641 7.47151C0.802214 7.49528 0.874054 7.41211 0.957868 7.24579C2.23902 4.29949 4.33435 2.14916 7.32769 0.925493C13.1827 -1.47432 20.2948 0.854211 23.0247 7.19827C23.1325 7.43587 23.2642 7.47151 23.4797 7.47151C23.8389 7.47151 24.0664 7.74476 23.9826 8.05365C23.9227 8.24373 23.791 8.35065 23.5995 8.38629C23.5276 8.39817 23.4438 8.39818 23.36 8.39818C15.7809 8.39818 8.21371 8.39818 0.634587 8.39818C0.347227 8.39818 0.131707 8.32689 0 8.06553C0 7.97049 0 7.88732 0 7.79228ZM19.1933 7.44775C17.9361 5.21427 15.1822 3.39659 11.8297 3.50351C8.80041 3.58667 6.44166 4.88162 4.76539 7.44775C9.60262 7.44775 14.392 7.44775 19.1933 7.44775ZM1.90376 7.45963C1.96363 7.45963 2.01152 7.47151 2.07139 7.47151C2.57427 7.47151 3.08912 7.4834 3.592 7.45963C3.66384 7.45963 3.74766 7.37647 3.78358 7.30519C5.48379 4.47769 7.9503 2.82633 11.2669 2.58873C15.0505 2.32736 17.972 3.8718 20.0194 7.03195C20.235 7.37647 20.4385 7.50716 20.8336 7.4834C21.2527 7.44775 21.6598 7.47151 22.0908 7.47151C20.5223 3.80052 16.4753 0.699768 11.4824 0.925493C6.57337 1.13934 3.11307 4.46581 1.90376 7.45963Z" fill="#333333"/>
<path d="M0 15.692C0.131707 15.4307 0.347227 15.3594 0.634587 15.3594C8.21371 15.3594 15.7809 15.3594 23.36 15.3594C23.4438 15.3594 23.5156 15.3594 23.5995 15.3713C23.8389 15.4069 24.0066 15.597 23.9946 15.8465C23.9826 16.0722 23.827 16.3098 23.5995 16.2742C23.1564 16.2148 23.0726 16.488 22.929 16.785C21.1569 20.5392 18.2115 22.8439 14.1046 23.5568C8.74054 24.4953 3.31662 21.8935 1.00576 16.583C0.909974 16.3692 0.814187 16.2385 0.550774 16.2742C0.28736 16.3336 0.119733 16.1791 0 15.9771C0 15.8821 0 15.7871 0 15.692ZM4.80131 16.3098C6.16627 18.6621 9.05185 20.5392 12.7037 20.2422C15.5055 20.0164 17.6846 18.7096 19.2292 16.3098C14.392 16.3098 9.60262 16.3098 4.80131 16.3098ZM22.1028 16.2979C21.564 16.2979 21.0372 16.3098 20.5103 16.2979C20.3547 16.2979 20.2828 16.3454 20.199 16.4761C18.3072 19.7788 14.7033 21.5965 10.9077 21.1451C7.84254 20.7768 5.49577 19.268 3.90331 16.6424C3.73568 16.3692 3.58003 16.2742 3.26872 16.286C2.81374 16.3098 2.35875 16.2979 1.89179 16.2979C3.40043 19.8739 7.37558 23.0103 12.3804 22.8439C17.2656 22.6776 20.8097 19.4343 22.1028 16.2979Z" fill="#333333"/>
<path d="M0 10.7148C0.0119733 10.6673 0.03592 10.6317 0.0478934 10.5842C0.239467 9.87134 0.874054 9.43177 1.59245 9.51493C2.3348 9.5981 2.84966 10.1565 2.86163 10.9168C2.8736 11.5465 2.8736 12.188 2.86163 12.8176C2.84966 13.5899 2.34678 14.1482 1.59245 14.2433C0.862081 14.3264 0.239467 13.8869 0.0478934 13.1503C0.03592 13.1147 0.0119733 13.079 0 13.0434C0 12.2712 0 11.4989 0 10.7148ZM0.933921 11.8791C0.933921 12.1761 0.933921 12.4612 0.933921 12.7582C0.933921 13.1028 1.12549 13.3166 1.42483 13.3166C1.72416 13.3166 1.91574 13.1147 1.92771 12.7701C1.92771 12.1761 1.92771 11.5821 1.92771 10.9881C1.92771 10.6554 1.72416 10.4416 1.42483 10.4416C1.13747 10.4416 0.945894 10.6673 0.933921 11C0.933921 11.297 0.933921 11.5821 0.933921 11.8791Z" fill="#333333"/>
<path d="M16.0801 11.7249C16.0801 11.1547 16.0801 10.5963 16.0801 10.026C16.0801 9.80032 16.1639 9.62211 16.3914 9.53895C16.7146 9.43203 17.002 9.64588 17.014 10.026C17.014 10.7745 17.014 11.523 17.014 12.2833C17.014 12.7704 17.014 13.2575 17.014 13.7446C17.014 14.0178 16.8823 14.196 16.6548 14.2554C16.4393 14.3148 16.2237 14.2079 16.104 13.9703C15.7807 13.3288 15.4574 12.6872 15.0863 12.0457C15.0863 12.117 15.0863 12.1883 15.0863 12.2595C15.0863 12.7704 15.0863 13.2812 15.0863 13.7921C15.0863 14.0772 14.8827 14.2673 14.6073 14.2673C14.3439 14.2673 14.1523 14.0891 14.1523 13.804C14.1523 12.5209 14.1523 11.2497 14.1523 9.96664C14.1523 9.74092 14.2841 9.58647 14.4996 9.52707C14.7151 9.46767 14.9186 9.56271 15.0384 9.78844C15.3377 10.3706 15.6251 10.9527 15.9244 11.5348C15.9603 11.6061 15.9962 11.6655 16.0322 11.7368C16.0441 11.7249 16.0681 11.7249 16.0801 11.7249Z" fill="#333333"/>
<path d="M5.72254 12.1879C5.96201 12.6512 6.1895 13.1026 6.40502 13.5541C6.5487 13.8392 6.44094 14.1244 6.16556 14.2313C5.92609 14.3263 5.6986 14.2313 5.56689 13.9699C5.31545 13.4828 5.07598 12.9838 4.81257 12.4968C4.77665 12.4255 4.68086 12.378 4.60902 12.3186C4.58508 12.3304 4.56113 12.3542 4.53718 12.3661C4.53718 12.7819 4.53718 13.1977 4.53718 13.6135C4.54916 14.0412 4.3935 14.255 4.07022 14.255C3.75891 14.2432 3.61523 14.0412 3.61523 13.6016C3.61523 12.4374 3.61523 11.2612 3.61523 10.0969C3.61523 9.66925 3.77089 9.50293 4.20193 9.50293C4.46534 9.50293 4.72876 9.50293 4.99217 9.50293C5.66268 9.51481 6.21345 9.89498 6.40502 10.489C6.5966 11.083 6.38108 11.7127 5.8303 12.1047C5.80636 12.1285 5.77044 12.1522 5.72254 12.1879ZM4.56113 10.4296C4.56113 10.7741 4.56113 11.0949 4.56113 11.4157C4.88441 11.38 5.23164 11.5107 5.45913 11.178C5.56689 11.0117 5.56689 10.8216 5.44716 10.6553C5.21966 10.3227 4.88441 10.4652 4.56113 10.4296Z" fill="#333333"/>
<path d="M19.6838 12.8294C19.3486 12.8294 19.0373 12.8294 18.69 12.8294C18.69 13.1383 18.69 13.4472 18.69 13.7561C18.69 14.0531 18.5104 14.2432 18.247 14.2551C17.9836 14.2669 17.7681 14.0887 17.7561 13.8036C17.7441 12.8176 17.7322 11.8315 17.7681 10.8573C17.792 10.0495 18.4386 9.50296 19.2288 9.51484C20.0191 9.52672 20.6177 10.1089 20.6297 10.9048C20.6417 11.8553 20.6417 12.8057 20.6297 13.7561C20.6297 14.0412 20.4381 14.2432 20.1747 14.2432C19.8993 14.2551 19.6958 14.0531 19.6958 13.7561C19.6838 13.4591 19.6838 13.1502 19.6838 12.8294ZM19.6838 11.879C19.6838 11.5345 19.6958 11.2137 19.6838 10.8929C19.6718 10.6316 19.4683 10.4534 19.2169 10.4415C18.9654 10.4296 18.7379 10.6078 18.714 10.8573C18.69 11.19 18.714 11.5345 18.714 11.879C19.0373 11.879 19.3486 11.879 19.6838 11.879Z" fill="#333333"/>
<path d="M10.7151 12.6519C10.5834 12.5212 10.4158 12.4143 10.332 12.2598C10.2122 12.0104 10.3918 11.7134 10.6912 11.6777C10.8947 11.654 11.1102 11.654 11.3258 11.6777C11.5533 11.7015 11.7089 11.8559 11.7209 12.0816C11.7329 12.4262 11.7448 12.7826 11.685 13.1271C11.5652 13.8518 10.9306 14.3033 10.2003 14.2557C9.46989 14.2082 8.90714 13.6617 8.88319 12.9251C8.85925 12.2242 8.85925 11.5114 8.88319 10.8105C8.90714 10.1927 9.36213 9.69371 10.0087 9.55115C10.6074 9.40859 11.218 9.68183 11.5173 10.2164C11.673 10.4778 11.6131 10.7511 11.3856 10.8936C11.1581 11.0362 10.9067 10.9649 10.7391 10.7273C10.5595 10.4659 10.3679 10.3828 10.1404 10.454C9.90093 10.5253 9.79317 10.7154 9.79317 11.0124C9.79317 11.5827 9.79317 12.141 9.79317 12.7113C9.79317 13.1033 9.97277 13.3172 10.2841 13.3172C10.6074 13.3172 10.787 13.0915 10.787 12.6994C10.787 12.6757 10.787 12.6519 10.775 12.6281C10.751 12.64 10.7271 12.6519 10.7151 12.6519Z" fill="#333333"/>
<path d="M22.3053 13.3287C22.7004 13.3287 23.0716 13.3287 23.4308 13.3287C23.778 13.3287 23.9815 13.5069 23.9815 13.792C23.9815 14.0772 23.778 14.2554 23.4308 14.2554C22.9159 14.2554 22.4011 14.2554 21.8862 14.2554C21.5509 14.2554 21.3594 14.0772 21.3594 13.7445C21.3594 12.509 21.3594 11.2615 21.3594 10.026C21.3594 9.70523 21.5629 9.50327 21.8383 9.51515C22.1137 9.51515 22.2933 9.71711 22.2933 10.026C22.2933 11.0358 22.2933 12.0338 22.2933 13.0436C22.3053 13.1267 22.3053 13.2099 22.3053 13.3287Z" fill="#333333"/>
<path d="M7.17329 11.8556C7.17329 11.2497 7.16132 10.6438 7.18526 10.0379C7.18526 9.89538 7.24513 9.70529 7.35289 9.62213C7.47262 9.53897 7.67617 9.52709 7.83182 9.55085C8.0234 9.59837 8.10721 9.77657 8.10721 9.96666C8.10721 11.2378 8.10721 12.509 8.10721 13.7802C8.10721 14.0653 7.90366 14.2554 7.62828 14.2436C7.36486 14.2436 7.17329 14.0535 7.17329 13.7565C7.16132 13.1268 7.17329 12.4972 7.17329 11.8556Z" fill="#333333"/>
<path d="M12.4648 11.8671C12.4648 11.2612 12.4648 10.6553 12.4648 10.0494C12.4648 9.70489 12.6325 9.50293 12.9318 9.50293C13.2311 9.50293 13.3988 9.70489 13.3988 10.0494C13.3988 11.2612 13.3988 12.4849 13.3988 13.6967C13.3988 14.0412 13.2311 14.2432 12.9318 14.2432C12.6444 14.2432 12.4648 14.0412 12.4648 13.6967C12.4648 13.0908 12.4648 12.4849 12.4648 11.8671Z" fill="#333333"/>
</svg>
