<svg width="24" height="24" viewBox="0 0 24 24" fill="none" xmlns="http://www.w3.org/2000/svg">
<path d="M2.90039 13.7793H3.27372C3.54706 13.7793 3.77372 13.5593 3.77372 13.2793C3.77372 13.006 3.55372 12.7793 3.27372 12.7793H2.90039C2.62706 12.7793 2.40039 12.9993 2.40039 13.2793C2.40039 13.5593 2.62706 13.7793 2.90039 13.7793Z" fill="black"/>
<path d="M7.97982 13.7793C8.25315 13.7793 8.47982 13.5593 8.47982 13.2793C8.47982 13.006 8.25982 12.7793 7.97982 12.7793H5.14648C4.87315 12.7793 4.64648 12.9993 4.64648 13.2793C4.64648 13.5526 4.86648 13.7793 5.14648 13.7793H7.97982Z" fill="black"/>
<path d="M2.90039 16H7.98039C8.25372 16 8.48039 15.78 8.48039 15.5C8.48039 15.2267 8.26039 15 7.98039 15H2.90039C2.62706 15 2.40039 15.22 2.40039 15.5C2.40039 15.78 2.62706 16 2.90039 16Z" fill="black"/>
<path d="M18.42 9.36667V1.55333C18.42 0.693333 17.7267 0 16.8667 0H1.55333C0.693333 0 0 0.693333 0 1.55333V7.11333C0 7.38667 0.22 7.61333 0.5 7.61333C0.78 7.61333 1 7.39333 1 7.11333V1.55333C1 1.24667 1.24667 1 1.55333 1H5.86V7.03333C5.86 7.21333 5.96 7.38 6.11333 7.46667C6.26667 7.55333 6.46 7.54667 6.62 7.45333L9.21333 5.85333L11.8067 7.45333C11.96 7.54667 12.1467 7.54667 12.3067 7.46C12.4667 7.36667 12.5667 7.20667 12.5667 7.03333V0.993333H16.8733C17.18 0.993333 17.4333 1.24 17.4333 1.54667V9.22C17.26 9.20667 17.08 9.2 16.9133 9.2C13 9.2 9.82 12.38 9.82 16.2933C9.82 16.6667 9.85333 17.0467 9.91333 17.42H1.55333C1.24667 17.42 1 17.1733 1 16.8667V11.3067C1 11.0333 0.78 10.8067 0.5 10.8067C0.22 10.8067 0 11.0333 0 11.3067V16.8667C0 17.72 0.693333 18.42 1.55333 18.42H10.1333C10.5733 19.8267 11.4733 21.0933 12.66 21.98C13.8933 22.9067 15.36 23.3933 16.9067 23.3933C20.82 23.3933 24 20.2133 24 16.3C24 12.9867 21.6533 10.0733 18.42 9.36667ZM16.9067 22.4C13.54 22.4 10.8067 19.6667 10.8067 16.3C10.8067 12.94 13.5467 10.2 16.9067 10.2C20.2667 10.2 23.0067 12.9333 23.0067 16.3C23.0067 19.66 20.2667 22.4 16.9067 22.4ZM11.5667 0.993333V6.14L9.47333 4.84667C9.31333 4.74667 9.11333 4.74667 8.95333 4.84667L6.86 6.14V0.993333H11.5667Z" fill="black"/>
<path d="M17.7552 13.5605H16.0418L16.8218 12.7805C17.0152 12.5872 17.0152 12.2739 16.8218 12.0805C16.6285 11.8872 16.3152 11.8872 16.1152 12.0805L14.4818 13.7139C14.3885 13.8072 14.3352 13.9339 14.3352 14.0672C14.3352 14.2005 14.3885 14.3272 14.4818 14.4205L16.1152 16.0539C16.2085 16.1472 16.3352 16.2005 16.4685 16.2005C16.6018 16.2005 16.7285 16.1472 16.8218 16.0539C16.9152 15.9605 16.9685 15.8339 16.9685 15.7005C16.9685 15.5672 16.9152 15.4405 16.8218 15.3472L16.0418 14.5672H17.7552C18.8685 14.5672 19.7752 15.4739 19.7752 16.5872C19.7752 17.7005 18.8685 18.6072 17.7552 18.6072H13.5352C13.2618 18.6072 13.0352 18.8272 13.0352 19.1072C13.0352 19.3805 13.2552 19.6072 13.5352 19.6072H17.7552C19.4218 19.6072 20.7752 18.2539 20.7752 16.5872C20.7752 14.9139 19.4218 13.5605 17.7552 13.5605Z" fill="black"/>
<path d="M0.5 9.70605C0.773333 9.70605 1 9.47939 1 9.20605C1 8.93272 0.78 8.70605 0.5 8.70605C0.22 8.70605 0 8.93272 0 9.21272C0 9.48605 0.22 9.70605 0.5 9.70605Z" fill="black"/>
</svg>
