<svg width="25" height="25" viewBox="0 0 25 25" fill="none" xmlns="http://www.w3.org/2000/svg">
<path fill-rule="evenodd" clip-rule="evenodd" d="M18.3496 3.5C18.6601 3.5 18.9663 3.57229 19.244 3.71115C19.5217 3.85 19.7633 4.05161 19.9496 4.3L22.6376 7.884C22.7725 8.06077 22.8444 8.27764 22.8416 8.5H22.8496V9.5C22.8496 10.514 22.4716 11.44 21.8496 12.146V19.5C21.8496 20.0304 21.6389 20.5391 21.2638 20.9142C20.8888 21.2893 20.38 21.5 19.8496 21.5H5.84961C5.31918 21.5 4.81047 21.2893 4.4354 20.9142C4.06033 20.5391 3.84961 20.0304 3.84961 19.5V12.146C3.20393 11.416 2.84817 10.4746 2.84961 9.5V8.5H2.85761C2.85487 8.27764 2.92669 8.06077 3.06161 7.884L5.74961 4.3C5.93591 4.05161 6.17748 3.85 6.45519 3.71115C6.7329 3.57229 7.03912 3.5 7.34961 3.5H18.3496ZM15.8496 12.146C15.4746 12.5721 15.0131 12.9133 14.4957 13.1468C13.9784 13.3802 13.4172 13.5007 12.8496 13.5C12.282 13.5007 11.7208 13.3802 11.2035 13.1468C10.6862 12.9133 10.2246 12.5721 9.84961 12.146C9.38973 12.669 8.80097 13.0625 8.14186 13.2874C7.48276 13.5123 6.77626 13.5608 6.09261 13.428L5.84961 13.374V19.5H19.8496V13.374L19.6066 13.428C18.9229 13.5607 18.2163 13.512 17.5572 13.2869C16.8981 13.0619 16.3094 12.6692 15.8496 12.146ZM20.8496 9.5H16.8496C16.8473 10.019 17.0468 10.5185 17.406 10.8932C17.7652 11.2678 18.2559 11.4881 18.7746 11.5075C19.2932 11.527 19.7991 11.3441 20.1853 10.9975C20.5716 10.6509 20.808 10.1677 20.8446 9.65L20.8496 9.5ZM14.8496 9.5H10.8496C10.8473 10.019 11.0468 10.5185 11.406 10.8932C11.7652 11.2678 12.2559 11.4881 12.7746 11.5075C13.2932 11.527 13.7991 11.3441 14.1853 10.9975C14.5716 10.6509 14.808 10.1677 14.8446 9.65L14.8496 9.5ZM8.84961 9.5H4.84961C4.84729 10.019 5.0468 10.5185 5.40599 10.8932C5.76518 11.2678 6.25593 11.4881 6.77455 11.5075C7.29318 11.527 7.79906 11.3441 8.18533 10.9975C8.5716 10.6509 8.80801 10.1677 8.84461 9.65L8.84961 9.5ZM18.3496 5.5H7.34961L5.84961 7.5H19.8496L18.3496 5.5Z" fill="#333333"/>
</svg>
