<svg width="24" height="24" viewBox="0 0 24 24" fill="none" xmlns="http://www.w3.org/2000/svg">
<path d="M10.5114 3.66489C10.699 3.45539 10.9287 3.2878 11.1854 3.17306C11.4422 3.05833 11.7202 2.99902 12.0014 2.99902C12.2826 2.99902 12.5607 3.05833 12.8174 3.17306C13.0742 3.2878 13.3038 3.45539 13.4914 3.66489L14.1914 4.44689C14.3915 4.67039 14.6393 4.84602 14.9164 4.96079C15.1935 5.07556 15.4929 5.12652 15.7924 5.10989L16.8424 5.05189C17.1233 5.03641 17.4042 5.08034 17.6669 5.18082C17.9297 5.28129 18.1682 5.43605 18.3671 5.63498C18.5659 5.83392 18.7205 6.07256 18.8209 6.33532C18.9212 6.59808 18.965 6.87906 18.9494 7.15989L18.8914 8.20889C18.875 8.50823 18.926 8.80743 19.0408 9.08438C19.1555 9.36133 19.3311 9.60894 19.5544 9.80889L20.3364 10.5089C20.5461 10.6965 20.7138 10.9262 20.8287 11.183C20.9435 11.4399 21.0029 11.7181 21.0029 11.9994C21.0029 12.2807 20.9435 12.5589 20.8287 12.8157C20.7138 13.0726 20.5461 13.3023 20.3364 13.4899L19.5544 14.1899C19.3309 14.39 19.1553 14.6377 19.0405 14.9149C18.9258 15.192 18.8748 15.4914 18.8914 15.7909L18.9494 16.8409C18.9649 17.1217 18.921 17.4027 18.8205 17.6654C18.72 17.9281 18.5653 18.1667 18.3663 18.3655C18.1674 18.5644 17.9288 18.719 17.666 18.8194C17.4032 18.9197 17.1223 18.9635 16.8414 18.9479L15.7924 18.8899C15.4931 18.8734 15.1939 18.9245 14.9169 19.0392C14.64 19.154 14.3924 19.3295 14.1924 19.5529L13.4924 20.3349C13.3048 20.5446 13.0751 20.7123 12.8183 20.8271C12.5614 20.942 12.2833 21.0013 12.0019 21.0013C11.7206 21.0013 11.4424 20.942 11.1856 20.8271C10.9287 20.7123 10.699 20.5446 10.5114 20.3349L9.81143 19.5529C9.61137 19.3294 9.3636 19.1538 9.08646 19.039C8.80933 18.9242 8.50993 18.8733 8.21043 18.8899L7.16043 18.9479C6.87959 18.9634 6.59863 18.9194 6.33592 18.819C6.0732 18.7185 5.83464 18.5637 5.6358 18.3648C5.43695 18.1659 5.28231 17.9272 5.18196 17.6645C5.08161 17.4017 5.03781 17.1207 5.05343 16.8399L5.11143 15.7909C5.1279 15.4916 5.07686 15.1924 4.9621 14.9154C4.84734 14.6385 4.67179 14.3908 4.44843 14.1909L3.66643 13.4909C3.45676 13.3033 3.28903 13.0736 3.17419 12.8167C3.05936 12.5599 3 12.2817 3 12.0004C3 11.7191 3.05936 11.4409 3.17419 11.184C3.28903 10.9272 3.45676 10.6975 3.66643 10.5099L4.44843 9.8099C4.67193 9.60983 4.84756 9.36206 4.96232 9.08493C5.07709 8.80779 5.12805 8.50839 5.11143 8.20889L5.05343 7.15889C5.03809 6.87813 5.08213 6.59729 5.18267 6.3347C5.28321 6.0721 5.43799 5.83366 5.63691 5.63493C5.83583 5.4362 6.07442 5.28164 6.33711 5.18135C6.5998 5.08106 6.88068 5.03729 7.16143 5.05289L8.21043 5.11089C8.50976 5.12736 8.80897 5.07633 9.08592 4.96157C9.36287 4.84681 9.61048 4.67125 9.81043 4.44789L10.5114 3.66489Z" stroke="#737373" stroke-width="1.5"/>
<path d="M9.5 9.5H9.51V9.51H9.5V9.5ZM14.5 14.5H14.51V14.51H14.5V14.5Z" stroke="#737373" stroke-width="2.25" stroke-linejoin="round"/>
<path d="M15 9L9 15" stroke="#737373" stroke-width="1.5" stroke-linecap="round" stroke-linejoin="round"/>
</svg>
